<?xml version="1.0" encoding="utf-8"?>
<!-- Generator: Adobe Illustrator 17.1.0, SVG Export Plug-In . SVG Version: 6.00 Build 0)  -->
<!DOCTYPE svg PUBLIC "-//W3C//DTD SVG 1.1//EN" "http://www.w3.org/Graphics/SVG/1.1/DTD/svg11.dtd">
<svg version="1.1" id="Layer_1" xmlns="http://www.w3.org/2000/svg" xmlns:xlink="http://www.w3.org/1999/xlink" x="0px" y="0px"
	 viewBox="0 0 235.7 58.6" style="enable-background:new 0 0 235.7 58.6;" xml:space="preserve">
<style type="text/css">
	.st0{clip-path:url(#SVGID_2_);fill:#A6CE38;}
	.st1{clip-path:url(#SVGID_2_);fill:#295BAA;}
	.st2{clip-path:url(#SVGID_2_);fill:#A68852;}
</style>
<g>
	<defs>
		<rect id="SVGID_1_" y="0" width="235.7" height="58.6"/>
	</defs>
	<clipPath id="SVGID_2_">
		<use xlink:href="#SVGID_1_"  style="overflow:visible;"/>
	</clipPath>
	<path class="st0" d="M29.2,0.4c16,0,28.9,12.9,28.9,28.9S45.2,58.2,29.2,58.2"/>
	<path class="st1" d="M29.3,0.4c-16,0-28.9,12.9-28.9,28.9s12.9,28.9,28.9,28.9"/>
	<path class="st2" d="M29.3,0C29.3,0,29.3,0,29.3,0L29.3,0C29.3,0,29.3,0,29.3,0C13.1,0,0,13.2,0,29.3s13.1,29.3,29.3,29.3
		c0,0,0,0,0,0l0,0c0,0,0,0,0,0c16.2,0,29.3-13.1,29.3-29.3C58.6,13.1,45.5,0,29.3,0 M24.2,2.4c-3.1,2.3-6.8,6.3-9.2,12.1
		c-2.6-1.1-4.8-2.4-6.2-3.3C12.7,6.7,18.1,3.5,24.2,2.4 M7.5,12.7c1.5,1,3.8,2.4,6.7,3.6c-1.2,3.4-2,7.5-2.1,12.1H1.9
		C2.1,22.5,4.2,17.1,7.5,12.7 M7.5,45.9c-3.4-4.4-5.4-9.8-5.6-15.7h10.2c0.1,4.5,1,8.5,2.3,12C11.5,43.5,9.1,44.9,7.5,45.9
		 M8.7,47.4c1.5-1,3.7-2.2,6.4-3.4c2.6,5.8,6.3,9.9,9.4,12.3C18.3,55.2,12.8,52,8.7,47.4 M28.4,56.5c-2.5-1-8-5.5-11.4-13.2
		c3.3-1.2,7.2-2.2,11.4-2.3V56.5z M28.4,39.1c-4.6,0.1-8.7,1.1-12.2,2.4c-1.2-3.3-2.1-7-2.2-11.3h14.4V39.1z M28.4,28.4H14
		c0.1-4.4,0.9-8.2,2-11.4c3.5,1.3,7.7,2.4,12.4,2.5V28.4z M28.4,17.6c-4.4-0.1-8.4-1.1-11.7-2.4c3.4-8.1,9.2-12.2,11.7-13.1V17.6z
		 M38.2,15.2c3.8,3.8,5.7,8,5.7,8s-4.2-2-8-5.7c-3.8-3.8-5.7-8-5.7-8S34.4,11.4,38.2,15.2 M30.3,2.1c0,0,3.1,1.4,5.9,4.2
		c2.8,2.8,4.2,5.9,4.2,5.9s-3.1-1.4-5.9-4.2C31.7,5.2,30.3,2.1,30.3,2.1 M38.5,22.7c3.9,3.9,5.9,8.2,5.9,8.2s-4.3-2-8.2-5.9
		c-3.9-3.9-5.9-8.2-5.9-8.2S34.6,18.8,38.5,22.7 M38,29.6c3.4,3.4,5.3,7.2,5.5,7.7c0,0,0,0,0,0c-0.4-0.2-4.2-2.1-7.7-5.5
		c-3.7-3.7-5.6-7.7-5.6-7.7S34.3,26,38,29.6 M37,36.2c3.2,3.2,4.8,6.7,4.8,6.7s-3.5-1.6-6.7-4.8s-4.8-6.7-4.8-6.7S33.8,33,37,36.2
		 M35.5,42.5c2.5,2.5,3.8,5.2,3.8,5.2s-2.7-1.3-5.2-3.8s-3.8-5.2-3.8-5.2S33,40,35.5,42.5 M30.3,46c0,0,1.8,0.8,3.4,2.4
		c1.6,1.6,2.4,3.4,2.4,3.4s-1.8-0.8-3.4-2.4C31.1,47.8,30.3,46,30.3,46 M33.9,56.3c0,0,5.6-2.6,10.7-7.7c5.1-5.1,7.7-10.7,7.7-10.7
		s-4.4,2.1-9,6.1c0.5-1.2,1-2.5,1.4-3.9c0.9-0.7,1.7-1.5,2.6-2.4c5-5,7.5-10.5,7.5-10.5s-4.3,2-8.8,5.9c0.1-1.1,0.2-2.2,0.2-3.3
		c0.6-0.5,1.2-1,1.7-1.6c3.7-3.7,5.6-7.7,5.6-7.7s-3.8,1.8-7.4,5.2c-0.1-1.3-0.2-2.5-0.4-3.6c0.2-0.2,0.4-0.3,0.6-0.5
		c3.2-3.2,4.8-6.7,4.8-6.7s-3,1.4-6,4.2c-0.3-1.2-0.6-2.3-1-3.4c0,0,0,0,0.1-0.1c2.5-2.5,3.8-5.2,3.8-5.2s-2.3,1.1-4.6,3.2
		c-0.5-1.1-1-2.2-1.6-3.2c0.1,0,0.1-0.1,0.2-0.1c1.6-1.6,2.4-3.4,2.4-3.4s-1.7,0.8-3.3,2.4c-2-3.1-4.3-5.5-6.4-7
		C47.2,4.8,56.7,16,56.7,29.3C56.7,42.9,46.8,54.1,33.9,56.3"/>
	<path class="st2" d="M72.6,19.4h1c0.4-0.8,1-2.6,1-6.4v-1.1h7v7.6h1.1V23h-2v-1.6h-6.1V23h-2V19.4z M76.6,14.3
		c-0.1,2.3-0.4,4.1-0.8,5.1h3.6v-5.6h-2.8L76.6,14.3z"/>
	<polygon class="st2" points="84.9,21.4 84.9,11.8 87,11.8 87,17.7 91.7,11.8 93.4,11.8 93.4,21.4 91.3,21.4 91.3,15.5 86.7,21.4 	
		"/>
	<polygon class="st2" points="102.8,13.8 98.5,13.8 98.5,21.4 96.4,21.4 96.4,11.8 104.9,11.8 104.9,21.4 102.8,21.4 	"/>
	<path class="st2" d="M113.9,13.8h-3l-0.1,1.1c-0.3,5.9-1.5,6.4-3.4,6.4c-0.2,0-0.4,0-0.5,0v-2c1.5,0.2,1.9-0.4,2-6.5l0-1.1h7.2v9.6
		h-2.1V13.8z"/>
	<path class="st2" d="M123.5,11.6c2.7,0,4.9,2.1,4.9,4.9c0,2.8-2.2,4.9-4.9,4.9c-2.7,0-4.9-2.1-4.9-4.9
		C118.6,13.8,120.7,11.6,123.5,11.6 M123.5,19.5c1.5,0,2.7-1.1,2.7-2.9c0-1.8-1.3-2.9-2.7-2.9c-1.4,0-2.7,1.1-2.7,2.9
		C120.8,18.4,122.1,19.5,123.5,19.5"/>
	<polygon class="st2" points="130.9,11.8 132.9,11.8 136,16.4 138.9,11.8 140.8,11.8 140.8,21.4 138.7,21.4 138.7,15.6 136.2,19.4 
		135.6,19.4 133.1,15.6 133.1,21.4 130.9,21.4 	"/>
	<path class="st2" d="M147,11.8h1.6l4.2,9.6h-2.2l-0.8-1.8h-4l-0.8,1.8h-2.2L147,11.8z M146.6,17.8h2.5l-1.2-2.9L146.6,17.8z"/>
	<polygon class="st2" points="152.7,11.8 160.9,11.8 160.9,13.8 157.9,13.8 157.9,21.4 155.8,21.4 155.8,13.8 152.7,13.8 	"/>
	<polygon class="st2" points="163.1,21.4 163.1,11.8 165.2,11.8 165.2,17.7 169.8,11.8 171.6,11.8 171.6,21.4 169.5,21.4 
		169.5,15.5 164.8,21.4 	"/>
	<path class="st2" d="M182.5,21.4h-2.1v-3.6c-0.5,0.3-1.4,0.5-2.3,0.5c-2.1,0-3.8-0.9-3.8-3.3v-3.2h2.1v1.9c0,2,0.6,2.6,2,2.6
		c0.7,0,1.5-0.2,2-0.6v-3.9h2.1V21.4z"/>
	<polygon class="st2" points="185.5,11.8 192.8,11.8 192.8,13.8 187.6,13.8 187.6,15.6 192.4,15.6 192.4,17.5 187.6,17.5 
		187.6,19.4 192.9,19.4 192.9,21.4 185.5,21.4 	"/>
	<path class="st2" d="M204.1,19.6c-0.9,1.3-2.4,2-4.1,2c-3,0-4.9-2-4.9-4.9c0-2.7,2-4.9,4.9-4.9c1.7,0,3.2,0.7,3.9,1.8l-1.4,1.3
		c-0.6-0.7-1.5-1.1-2.3-1.1c-1.7,0-2.9,1.1-2.9,2.9c0,1.7,1.2,2.9,2.9,2.9c1.1,0,2-0.5,2.6-1.3L204.1,19.6z"/>
	<polygon class="st2" points="206.3,11.8 208.4,11.8 208.4,15.5 212.1,11.8 214.9,11.8 210.7,16 215.1,21.4 212.3,21.4 209.1,17.4 
		208.4,18.1 208.4,21.4 206.3,21.4 	"/>
	<path class="st2" d="M220.1,11.8h1.6l4.2,9.6h-2.2l-0.8-1.8h-4l-0.8,1.8h-2.2L220.1,11.8z M219.6,17.8h2.5l-1.2-2.9L219.6,17.8z"/>
	<path class="st2" d="M233.6,18.2H232l-2.4,3.2h-2.5l2.8-3.6c-1.4-0.4-2.1-1.4-2.1-2.8c0-1.8,1.3-3.2,4-3.2h4v9.6h-2.1V18.2z
		 M233.6,16.2v-2.4h-2c-1.2,0-1.7,0.4-1.7,1.2c0,0.7,0.6,1.2,1.6,1.2H233.6z"/>
	<path class="st2" d="M76.7,25.5h1.6l4.2,9.6h-2.2l-0.8-1.8h-4L74.7,35h-2.2L76.7,25.5z M76.2,31.4h2.5l-1.2-2.9L76.2,31.4z"/>
	<polygon class="st2" points="84.5,25.4 86.6,25.4 86.6,29.2 90.3,25.4 93.1,25.4 88.9,29.7 93.3,35 90.5,35 87.3,31.1 86.6,31.8 
		86.6,35 84.5,35 	"/>
	<path class="st2" d="M98.3,25.5h1.6l4.2,9.6h-2.2l-0.8-1.8h-4L96.3,35h-2.2L98.3,25.5z M97.8,31.4h2.5l-1.2-2.9L97.8,31.4z"/>
	<path class="st2" d="M105.6,33h1c0.4-0.8,1-2.6,1-6.4v-1.1h7V33h1.1v3.6h-2V35h-6.1v1.6h-2V33z M109.6,28c-0.1,2.3-0.4,4.1-0.8,5.1
		h3.6v-5.6h-2.8L109.6,28z"/>
	<polygon class="st2" points="117.9,25.4 125.2,25.4 125.2,27.4 120,27.4 120,29.2 124.9,29.2 124.9,31.1 120,31.1 120,33 125.3,33 
		125.3,35 117.9,35 	"/>
	<polygon class="st2" points="128,25.4 130,25.4 133,30 135.9,25.4 137.8,25.4 137.8,35 135.7,35 135.7,29.3 133.2,33.1 132.7,33.1 
		130.1,29.2 130.1,35 128,35 	"/>
	<polygon class="st2" points="140.8,35 140.8,25.5 143,25.5 143,31.3 147.6,25.5 149.4,25.5 149.4,35 147.2,35 147.2,29.2 142.6,35 
			"/>
	<path class="st2" d="M158,31.9h-1.6L154,35h-2.5l2.8-3.6c-1.4-0.4-2.1-1.4-2.1-2.8c0-1.8,1.3-3.2,4-3.2h4V35H158V31.9z M158,29.9
		v-2.4h-2c-1.2,0-1.7,0.4-1.7,1.2c0,0.7,0.6,1.2,1.6,1.2H158z"/>
	<polygon class="st2" points="73.4,39.1 75.4,39.1 78.5,43.7 81.4,39.1 83.3,39.1 83.3,48.7 81.2,48.7 81.2,42.9 78.7,46.7 
		78.1,46.7 75.6,42.9 75.6,48.7 73.4,48.7 	"/>
	<polygon class="st2" points="86.3,48.7 86.3,39.1 88.4,39.1 88.4,45 93,39.1 94.8,39.1 94.8,48.7 92.7,48.7 92.7,42.8 88,48.7 	"/>
	<path class="st2" d="M96.9,46.7h1c0.4-0.8,1-2.6,1-6.4v-1.1h7v7.6h1.1v3.6h-2v-1.6h-6.1v1.6h-2V46.7z M101,41.6
		c-0.1,2.3-0.4,4.1-0.8,5.1h3.6v-5.6H101L101,41.6z"/>
	<path class="st2" d="M113.7,48.7v-9.6h4c3.3,0,4.1,1.7,4.1,3.3c0,1.6-1,3.3-4.1,3.3h-1.8v3H113.7z M115.8,41.1v2.6h1.8
		c1.3,0,1.9-0.5,1.9-1.3c0-0.8-0.5-1.3-1.8-1.3H115.8z"/>
	<path class="st2" d="M128.6,38.9c2.7,0,4.9,2.1,4.9,4.9c0,2.8-2.2,4.9-4.9,4.9c-2.7,0-4.9-2.1-4.9-4.9
		C123.7,41.1,125.8,38.9,128.6,38.9 M128.6,46.8c1.5,0,2.7-1.1,2.7-2.9c0-1.8-1.3-2.9-2.7-2.9c-1.4,0-2.7,1.1-2.7,2.9
		C125.9,45.7,127.1,46.8,128.6,46.8"/>
	<path class="st2" d="M144.5,46.9c-0.9,1.3-2.4,2-4.1,2c-3,0-4.9-2-4.9-4.9c0-2.7,2-4.9,4.9-4.9c1.7,0,3.2,0.7,3.9,1.8l-1.4,1.3
		c-0.6-0.7-1.5-1.1-2.3-1.1c-1.7,0-2.9,1.1-2.9,2.9c0,1.7,1.2,2.9,2.9,2.9c1.1,0,2-0.5,2.6-1.3L144.5,46.9z"/>
	<path class="st2" d="M154.9,46.9c-0.9,1.3-2.4,2-4.1,2c-3,0-4.9-2-4.9-4.9c0-2.7,2-4.9,4.9-4.9c1.7,0,3.2,0.7,3.9,1.8l-1.4,1.3
		c-0.6-0.7-1.5-1.1-2.3-1.1c-1.7,0-2.9,1.1-2.9,2.9c0,1.7,1.2,2.9,2.9,2.9c1.1,0,2-0.5,2.6-1.3L154.9,46.9z"/>
	<polygon class="st2" points="157.1,48.7 157.1,39.1 159.3,39.1 159.3,45 163.9,39.1 165.6,39.1 165.6,48.7 163.5,48.7 163.5,42.8 
		158.9,48.7 	"/>
	<polygon class="st2" points="168.6,48.7 168.6,39.1 170.8,39.1 170.8,45 175.4,39.1 177.2,39.1 177.2,48.7 175,48.7 175,42.8 
		170.4,48.7 	"/>
</g>
</svg>
